<svg width="74" height="24" viewBox="0 0 74 24" fill="none" xmlns="http://www.w3.org/2000/svg">
<path d="M61.6667 0H12.3333C5.52182 0 0 5.37258 0 12C0 18.6274 5.52182 24 12.3333 24H61.6667C68.4782 24 74 18.6274 74 12C74 5.37258 68.4782 0 61.6667 0Z" fill="white"/>
<path fill-rule="evenodd" clip-rule="evenodd" d="M61.7955 20.6838C56.939 20.6838 52.9883 16.8172 52.9883 12.0636C52.9883 7.31002 56.939 3.44348 61.7955 3.44348C66.6521 3.44348 70.6028 7.31002 70.6028 12.0636C70.6028 16.8172 66.6521 20.6838 61.7955 20.6838Z" fill="#7C47E1"/>
<path fill-rule="evenodd" clip-rule="evenodd" d="M61.7958 17.9433C58.4776 17.9433 55.7891 15.3105 55.7891 12.0636C55.7891 8.81671 58.4791 6.18384 61.7958 6.18384C65.1125 6.18384 67.8025 8.81671 67.8025 12.0636C67.8025 15.3105 65.1125 17.9433 61.7958 17.9433Z" fill="#44CB86"/>
<path fill-rule="evenodd" clip-rule="evenodd" d="M12.4684 17.9095C9.17499 17.9095 6.49661 15.2865 6.49661 12.0637C6.49661 8.84085 9.17499 6.21788 12.4684 6.21788C15.7619 6.21788 18.4403 8.84085 18.4403 12.0637C18.4403 15.2865 15.7604 17.9095 12.4684 17.9095ZM21.2669 12.0637C21.2669 7.31432 17.3206 3.45203 12.4684 3.45203C7.61624 3.45203 3.66992 7.31574 3.66992 12.0637C3.66992 16.8116 7.61624 20.6753 12.4684 20.6753C14.7717 20.6753 16.8713 19.8038 18.4403 18.3806V19.2917C18.4403 20.0557 19.0728 20.6739 19.8536 20.6739C20.6344 20.6739 21.2669 20.0542 21.2669 19.2917V12.3396C21.2669 12.3127 21.2669 12.2858 21.264 12.2617C21.264 12.1953 21.2669 12.1288 21.2669 12.0637Z" fill="#7C47E1"/>
<path fill-rule="evenodd" clip-rule="evenodd" d="M31.9709 20.7362C27.0853 20.7362 23.1113 16.8456 23.1113 12.0637C23.1113 7.28183 27.0867 3.39124 31.9709 3.39124C34.1622 3.39124 36.2647 4.18067 37.8933 5.61241C38.4764 6.12597 38.5244 7.00595 38.0009 7.57751C37.476 8.14908 36.5774 8.19576 35.9928 7.6822C34.8878 6.71026 33.4584 6.17407 31.9709 6.17407C28.6527 6.17407 25.954 8.81543 25.954 12.0637C25.954 15.312 28.6527 17.9534 31.9709 17.9534C33.4599 17.9534 34.8892 17.4172 35.9943 16.4438C36.5774 15.9303 37.476 15.9755 38.0023 16.5471C38.5273 17.1187 38.4807 17.9972 37.8977 18.5122C36.2691 19.9468 34.1651 20.7362 31.9724 20.7362H31.9709Z" fill="#7C47E1"/>
<path fill-rule="evenodd" clip-rule="evenodd" d="M53.109 18.1967L45.4839 11.935L53.109 5.80339C53.7095 5.31671 53.7924 4.44381 53.2951 3.85668C52.7964 3.26814 51.9065 3.1875 51.306 3.67559L43.0454 10.3801V4.73949C43.0454 3.97552 42.4129 3.35727 41.6321 3.35727C40.8513 3.35727 40.2188 3.97693 40.2188 4.73949V19.2606C40.2188 20.0246 40.8513 20.6442 41.6321 20.6442C42.4129 20.6442 43.0454 20.0246 43.0454 19.2606V13.6199L51.306 20.3245C51.5706 20.5381 51.889 20.6428 52.2075 20.6428C52.6132 20.6428 53.0159 20.473 53.2951 20.142C53.7938 19.5534 53.7095 18.682 53.109 18.1953V18.1967Z" fill="#7C47E1"/>
</svg>
